<?xml version="1.0" standalone="no"?>
<!DOCTYPE svg PUBLIC "-//W3C//DTD SVG 20010904//EN"
 "http://www.w3.org/TR/2001/REC-SVG-20010904/DTD/svg10.dtd">
<svg version="1.0" xmlns="http://www.w3.org/2000/svg"
 width="512.000000pt" height="512.000000pt" viewBox="0 0 512.000000 512.000000"
 preserveAspectRatio="xMidYMid meet">
<metadata>
Created by potrace 1.14, written by Peter Selinger 2001-2017
</metadata>
<g transform="translate(0.000000,512.000000) scale(0.100000,-0.100000)"
fill="#000000" stroke="none">
<path d="M2150 4547 c-99 -34 -150 -78 -196 -167 -25 -47 -29 -67 -29 -135 0
-134 10 -148 320 -458 147 -148 278 -273 291 -278 14 -5 34 -5 48 1 13 5 144
129 291 277 303 303 318 324 321 446 1 82 -15 136 -62 200 -44 61 -107 101
-183 117 -120 25 -217 -9 -324 -114 l-67 -67 -68 67 c-82 82 -150 116 -241
120 -36 2 -82 -2 -101 -9z"/>
<path d="M1284 4200 c-27 -24 -51 -46 -54 -49 -3 -3 -45 -42 -95 -86 -49 -44
-92 -82 -95 -86 -3 -3 -48 -43 -100 -89 -52 -47 -115 -103 -140 -126 -59 -54
-84 -77 -165 -149 -109 -96 -155 -145 -155 -165 0 -32 17 -63 57 -105 21 -23
67 -74 103 -115 95 -109 154 -175 235 -265 241 -267 252 -281 258 -337 14
-115 18 -144 23 -166 3 -13 7 -43 10 -65 3 -23 7 -51 9 -63 3 -11 7 -49 10
-85 l6 -64 -51 -54 c-71 -73 -94 -127 -94 -216 1 -173 133 -300 314 -299 49 0
86 6 106 17 l31 16 66 -98 c68 -102 74 -107 153 -116 36 -4 38 -11 16 -42 -84
-119 -20 -309 118 -352 56 -18 58 -19 64 -58 21 -115 114 -200 224 -205 40 -1
44 -4 61 -43 45 -103 158 -156 281 -132 32 6 37 3 55 -26 11 -17 42 -45 69
-62 43 -26 59 -30 120 -30 92 0 149 31 209 116 23 32 50 61 60 65 48 16 127
114 127 158 0 11 11 15 38 14 50 0 134 36 167 74 35 39 65 105 65 144 0 27 5
32 41 43 52 16 117 75 141 129 18 41 27 140 14 160 -3 5 13 21 37 36 101 65
137 187 88 297 -23 51 -45 78 -84 103 l-27 18 0 185 0 185 63 71 c34 39 67 76
72 83 6 6 33 37 60 69 28 32 55 63 60 69 6 6 66 76 135 156 68 80 127 147 130
150 3 3 62 70 130 150 69 80 135 156 147 170 12 14 30 34 40 46 220 253 206
233 199 273 -3 20 -15 44 -28 54 -12 10 -40 33 -61 50 -22 18 -44 37 -51 42
-6 6 -85 71 -176 145 -91 74 -170 139 -176 145 -6 5 -28 24 -49 40 -21 17
-114 92 -206 168 -96 78 -180 140 -196 143 -18 3 -38 -2 -55 -13 -15 -10 -100
-108 -190 -218 -89 -110 -167 -205 -173 -211 -5 -6 -140 -169 -299 -362 -159
-194 -292 -352 -295 -352 -3 0 -73 41 -156 90 l-150 90 -485 485 c-554 554
-520 528 -606 455z"/>
</g>
</svg>
